<svg xmlns="http://www.w3.org/2000/svg"  viewBox="0 0 100 100" width="100px" height="100px" baseProfile="basic"><path fill="#656566" d="M28,17h44c6.075,0,11,4.925,11,11v44c0,6.075-4.925,11-11,11H28c-6.075,0-11-4.925-11-11V28 C17,21.925,21.925,17,28,17z"/><path fill="#1f212b" d="M72,84H28c-6.617,0-12-5.383-12-12V28c0-6.617,5.383-12,12-12h44c6.617,0,12,5.383,12,12v44 C84,78.617,78.617,84,72,84z M28,18c-5.514,0-10,4.486-10,10v44c0,5.514,4.486,10,10,10h44c5.514,0,10-4.486,10-10V28 c0-5.514-4.486-10-10-10H28z"/><path fill="#1f212b" d="M21,41.5c-0.276,0-0.5-0.224-0.5-0.5v-6c0-0.276,0.224-0.5,0.5-0.5s0.5,0.224,0.5,0.5v6 C21.5,41.276,21.276,41.5,21,41.5z"/><path fill="#656566" d="M34.5,79H28c-3.859,0-7-3.141-7-7V43.25"/><path fill="#1f212b" d="M34.5,79.5H28c-4.136,0-7.5-3.364-7.5-7.5V43.25c0-0.276,0.224-0.5,0.5-0.5s0.5,0.224,0.5,0.5V72 c0,3.584,2.916,6.5,6.5,6.5h6.5c0.276,0,0.5,0.224,0.5,0.5S34.776,79.5,34.5,79.5z"/><path fill="#656566" d="M79,66.75V72c0,3.859-3.141,7-7,7H59.25"/><path fill="#1f212b" d="M72,79.5H59.25c-0.276,0-0.5-0.224-0.5-0.5s0.224-0.5,0.5-0.5H72c3.584,0,6.5-2.916,6.5-6.5v-5.25 c0-0.276,0.224-0.5,0.5-0.5s0.5,0.224,0.5,0.5V72C79.5,76.136,76.136,79.5,72,79.5z"/><path fill="#1f212b" d="M79,63c-0.276,0-0.5-0.224-0.5-0.5v-7c0-0.276,0.224-0.5,0.5-0.5s0.5,0.224,0.5,0.5v7 C79.5,62.776,79.276,63,79,63z"/><path fill="#656566" d="M62.125,21H72c3.859,0,7,3.141,7,7v24.625"/><path fill="#1f212b" d="M79,53.125c-0.276,0-0.5-0.224-0.5-0.5V28c0-3.584-2.916-6.5-6.5-6.5h-9.875 c-0.276,0-0.5-0.224-0.5-0.5s0.224-0.5,0.5-0.5H72c4.136,0,7.5,3.364,7.5,7.5v24.625C79.5,52.901,79.276,53.125,79,53.125z"/><path fill="#1f212b" d="M60,21.5h-1.5c-0.276,0-0.5-0.224-0.5-0.5s0.224-0.5,0.5-0.5H60c0.276,0,0.5,0.224,0.5,0.5 S60.276,21.5,60,21.5z"/><path fill="#1f212b" d="M56.375,21.5H53c-0.276,0-0.5-0.224-0.5-0.5s0.224-0.5,0.5-0.5h3.375c0.276,0,0.5,0.224,0.5,0.5 S56.651,21.5,56.375,21.5z"/><path fill="#fff" d="M44.5,22.5L31.667,35.333L41.75,45.417c1.518,1.52,1.518,3.98,0,5.5l15.583-15.583L44.5,22.5z"/><polygon fill="#00ab9b" points="60.142,38.083 33.5,64.635 46.41,77.5 73.052,50.948"/><path fill="#fff" d="M56.25,34.25L44.5,22.5l-4,4"/><path fill="#1f212b" d="M56.25,34.75c-0.128,0-0.256-0.049-0.354-0.146L44.5,23.207l-3.646,3.646 c-0.195,0.195-0.512,0.195-0.707,0s-0.195-0.512,0-0.707l4-4c0.195-0.195,0.512-0.195,0.707,0l11.75,11.75 c0.195,0.195,0.195,0.512,0,0.707C56.506,34.701,56.378,34.75,56.25,34.75z"/><path fill="#fff" d="M38.25,28.75l-6.583,6.583L41.75,45.417c1.518,1.52,1.518,3.98,0,5.5L54.917,37.75"/><path fill="#1f212b" d="M41.75,51.417c-0.128,0-0.256-0.049-0.354-0.146c-0.195-0.195-0.195-0.512,0-0.707l0,0l0.003-0.003 c1.316-1.322,1.315-3.47-0.003-4.79L31.313,35.687c-0.195-0.195-0.195-0.512,0-0.707l6.583-6.583c0.195-0.195,0.512-0.195,0.707,0 s0.195,0.512,0,0.707l-6.229,6.229l9.729,9.73c0.963,0.965,1.384,2.27,1.261,3.532l11.199-11.199c0.195-0.195,0.512-0.195,0.707,0 s0.195,0.512,0,0.707L42.104,51.271C42.006,51.368,41.878,51.417,41.75,51.417z"/><polyline fill="#00ab9b" points="38,60.151 33.5,64.635 46.41,77.5 73.052,50.948 60.142,38.083 44.5,53.673 44,54.171 43.5,54.669 39.625,58.531"/><path fill="#1f212b" d="M39.625,59.031c-0.128,0-0.257-0.049-0.354-0.147c-0.194-0.195-0.194-0.512,0.002-0.707l0.5-0.498	c0.195-0.193,0.512-0.195,0.707,0.002c0.194,0.195,0.194,0.512-0.002,0.707l-0.5,0.498C39.88,58.982,39.753,59.031,39.625,59.031z"/><path fill="#1f212b" d="M41.25,57.375c-0.13,0-0.259-0.05-0.357-0.15c-0.193-0.196-0.189-0.514,0.008-0.707l2.25-2.206	c0.197-0.192,0.514-0.19,0.707,0.008c0.193,0.196,0.189,0.514-0.008,0.707l-2.25,2.206C41.503,57.327,41.376,57.375,41.25,57.375z"/><path fill="#1f212b" d="M44.875,53.799c-0.128,0-0.257-0.049-0.354-0.147c-0.194-0.195-0.194-0.512,0.002-0.707	l15.267-15.216c0.193-0.193,0.51-0.193,0.705,0l5.813,5.792c0.196,0.195,0.196,0.512,0.002,0.707	c-0.195,0.197-0.512,0.195-0.707,0.002l-5.46-5.44L45.228,53.653C45.131,53.75,45.003,53.799,44.875,53.799z"/><path fill="#1f212b" d="M68,46.413c-0.128,0-0.255-0.049-0.353-0.146l-0.625-0.622c-0.196-0.195-0.196-0.512-0.002-0.707	c0.195-0.197,0.512-0.195,0.707-0.002l0.625,0.622c0.196,0.195,0.196,0.512,0.002,0.707C68.257,46.364,68.128,46.413,68,46.413z"/><path fill="#1f212b" d="M46.41,78c-0.128,0-0.255-0.049-0.353-0.146L33.147,64.99C33.053,64.896,33,64.769,33,64.636	s0.053-0.261,0.147-0.354l4.5-4.485c0.193-0.193,0.512-0.195,0.707,0.002c0.194,0.195,0.194,0.512-0.002,0.707l-4.145,4.131	L46.41,76.794l25.935-25.846l-3.105-3.094c-0.196-0.195-0.196-0.512-0.002-0.707c0.195-0.197,0.512-0.195,0.707-0.002l3.461,3.448	c0.095,0.094,0.147,0.222,0.147,0.354s-0.053,0.261-0.147,0.354L46.763,77.854C46.666,77.951,46.538,78,46.41,78z"/></svg>